# Blender 4.0.1
# www.blender.org
mtllib 针筒.mtl
o 针筒
v 0.000000 -0.100000 -0.024000
v 0.000000 0.100000 -0.020208
v 0.004682 -0.100000 -0.023539
v 0.003942 0.100000 -0.019820
v 0.009184 -0.100000 -0.022173
v 0.007733 0.100000 -0.018670
v 0.013334 -0.100000 -0.019955
v 0.011227 0.100000 -0.016802
v 0.016971 -0.100000 -0.016971
v 0.014289 0.100000 -0.014289
v 0.019955 -0.100000 -0.013334
v 0.016802 0.100000 -0.011227
v 0.022173 -0.100000 -0.009184
v 0.018670 0.100000 -0.007733
v 0.023539 -0.100000 -0.004682
v 0.019820 0.100000 -0.003942
v 0.024000 -0.100000 0.000000
v 0.020208 0.100000 0.000000
v 0.023539 -0.100000 0.004682
v 0.019820 0.100000 0.003942
v 0.022173 -0.100000 0.009184
v 0.018670 0.100000 0.007733
v 0.019955 -0.100000 0.013334
v 0.016802 0.100000 0.011227
v 0.016971 -0.100000 0.016971
v 0.014289 0.100000 0.014289
v 0.013334 -0.100000 0.019955
v 0.011227 0.100000 0.016802
v 0.009184 -0.100000 0.022173
v 0.007733 0.100000 0.018670
v 0.004682 -0.100000 0.023539
v 0.003942 0.100000 0.019820
v 0.000000 -0.100000 0.024000
v 0.000000 0.100000 0.020208
v -0.004682 -0.100000 0.023539
v -0.003942 0.100000 0.019820
v -0.009184 -0.100000 0.022173
v -0.007733 0.100000 0.018670
v -0.013334 -0.100000 0.019955
v -0.011227 0.100000 0.016802
v -0.016971 -0.100000 0.016971
v -0.014289 0.100000 0.014289
v -0.019955 -0.100000 0.013334
v -0.016802 0.100000 0.011227
v -0.022173 -0.100000 0.009184
v -0.018670 0.100000 0.007733
v -0.023539 -0.100000 0.004682
v -0.019820 0.100000 0.003942
v -0.024000 -0.100000 0.000000
v -0.020208 0.100000 0.000000
v -0.023539 -0.100000 -0.004682
v -0.019820 0.100000 -0.003942
v -0.022173 -0.100000 -0.009184
v -0.018670 0.100000 -0.007733
v -0.019955 -0.100000 -0.013334
v -0.016802 0.100000 -0.011227
v -0.016971 -0.100000 -0.016971
v -0.014289 0.100000 -0.014289
v -0.013334 -0.100000 -0.019955
v -0.011227 0.100000 -0.016802
v -0.009184 -0.100000 -0.022173
v -0.007733 0.100000 -0.018670
v -0.004682 -0.100000 -0.023539
v -0.003942 0.100000 -0.019820
v 0.004682 0.100000 -0.023539
v 0.000000 0.100000 -0.024000
v 0.009184 0.100000 -0.022173
v 0.013334 0.100000 -0.019955
v 0.016971 0.100000 -0.016971
v 0.019955 0.100000 -0.013334
v 0.022173 0.100000 -0.009184
v 0.023539 0.100000 -0.004682
v 0.024000 0.100000 0.000000
v 0.023539 0.100000 0.004682
v 0.022173 0.100000 0.009184
v 0.019955 0.100000 0.013334
v 0.016971 0.100000 0.016971
v 0.013334 0.100000 0.019955
v 0.009184 0.100000 0.022173
v 0.004682 0.100000 0.023539
v 0.000000 0.100000 0.024000
v -0.004682 0.100000 0.023539
v -0.009184 0.100000 0.022173
v -0.013334 0.100000 0.019955
v -0.016971 0.100000 0.016971
v -0.019955 0.100000 0.013334
v -0.022173 0.100000 0.009184
v -0.023539 0.100000 0.004682
v -0.024000 0.100000 0.000000
v -0.023539 0.100000 -0.004682
v -0.022173 0.100000 -0.009184
v -0.019955 0.100000 -0.013334
v -0.016971 0.100000 -0.016971
v -0.013334 0.100000 -0.019955
v -0.009184 0.100000 -0.022173
v -0.004682 0.100000 -0.023539
vn 0.0980 -0.0000 -0.9952
vn 0.2903 -0.0000 -0.9569
vn 0.4714 -0.0000 -0.8819
vn 0.6344 -0.0000 -0.7730
vn 0.7730 -0.0000 -0.6344
vn 0.8819 -0.0000 -0.4714
vn 0.9569 -0.0000 -0.2903
vn 0.9952 -0.0000 -0.0980
vn 0.9952 -0.0000 0.0980
vn 0.9569 -0.0000 0.2903
vn 0.8819 -0.0000 0.4714
vn 0.7730 -0.0000 0.6344
vn 0.6344 -0.0000 0.7730
vn 0.4714 -0.0000 0.8819
vn 0.2903 -0.0000 0.9569
vn 0.0980 -0.0000 0.9952
vn -0.0980 -0.0000 0.9952
vn -0.2903 -0.0000 0.9569
vn -0.4714 -0.0000 0.8819
vn -0.6344 -0.0000 0.7730
vn -0.7730 -0.0000 0.6344
vn -0.8819 -0.0000 0.4714
vn -0.9569 -0.0000 0.2903
vn -0.9952 -0.0000 0.0980
vn -0.9952 -0.0000 -0.0980
vn -0.9569 -0.0000 -0.2903
vn -0.8819 -0.0000 -0.4714
vn -0.7730 -0.0000 -0.6344
vn -0.6344 -0.0000 -0.7730
vn -0.4714 -0.0000 -0.8819
vn 0.2902 -0.0189 0.9568
vn -0.2903 -0.0000 -0.9569
vn -0.0980 -0.0000 -0.9952
vn 0.0980 -0.0189 0.9950
vn -0.0000 1.0000 -0.0000
vn 0.4713 -0.0189 0.8818
vn 0.6343 -0.0189 0.7729
vn 0.7729 -0.0189 0.6343
vn 0.8818 -0.0189 0.4713
vn 0.9568 -0.0189 0.2902
vn 0.9950 -0.0189 0.0980
vn 0.9950 -0.0189 -0.0980
vn 0.9568 -0.0189 -0.2902
vn 0.8818 -0.0189 -0.4713
vn 0.7729 -0.0189 -0.6343
vn 0.6343 -0.0189 -0.7729
vn 0.4713 -0.0189 -0.8818
vn 0.2902 -0.0189 -0.9568
vn 0.0980 -0.0189 -0.9950
vn -0.0980 -0.0189 -0.9950
vn -0.2902 -0.0189 -0.9568
vn -0.4713 -0.0189 -0.8818
vn -0.6343 -0.0189 -0.7729
vn -0.7729 -0.0189 -0.6343
vn -0.8818 -0.0189 -0.4713
vn -0.9568 -0.0189 -0.2902
vn -0.9950 -0.0189 -0.0980
vn -0.9950 -0.0189 0.0980
vn -0.9568 -0.0189 0.2902
vn -0.8818 -0.0189 0.4713
vn -0.7729 -0.0189 0.6343
vn -0.6343 -0.0189 0.7729
vn -0.4713 -0.0189 0.8818
vn -0.2902 -0.0189 0.9568
vn -0.0980 -0.0189 0.9950
vt 1.000000 0.500000
vt 1.000000 1.000000
vt 0.968750 1.000000
vt 0.968750 0.500000
vt 0.937500 1.000000
vt 0.937500 0.500000
vt 0.906250 1.000000
vt 0.906250 0.500000
vt 0.875000 1.000000
vt 0.875000 0.500000
vt 0.843750 1.000000
vt 0.843750 0.500000
vt 0.812500 1.000000
vt 0.812500 0.500000
vt 0.781250 1.000000
vt 0.781250 0.500000
vt 0.750000 1.000000
vt 0.750000 0.500000
vt 0.718750 1.000000
vt 0.718750 0.500000
vt 0.687500 1.000000
vt 0.687500 0.500000
vt 0.656250 1.000000
vt 0.656250 0.500000
vt 0.625000 1.000000
vt 0.625000 0.500000
vt 0.593750 1.000000
vt 0.593750 0.500000
vt 0.562500 1.000000
vt 0.562500 0.500000
vt 0.531250 1.000000
vt 0.531250 0.500000
vt 0.500000 1.000000
vt 0.500000 0.500000
vt 0.468750 1.000000
vt 0.468750 0.500000
vt 0.437500 1.000000
vt 0.437500 0.500000
vt 0.406250 1.000000
vt 0.406250 0.500000
vt 0.375000 1.000000
vt 0.375000 0.500000
vt 0.343750 1.000000
vt 0.343750 0.500000
vt 0.312500 1.000000
vt 0.312500 0.500000
vt 0.281250 1.000000
vt 0.281250 0.500000
vt 0.250000 1.000000
vt 0.250000 0.500000
vt 0.218750 1.000000
vt 0.218750 0.500000
vt 0.187500 1.000000
vt 0.187500 0.500000
vt 0.156250 1.000000
vt 0.156250 0.500000
vt 0.125000 1.000000
vt 0.125000 0.500000
vt 0.093750 1.000000
vt 0.093750 0.500000
vt 0.062500 1.000000
vt 0.062500 0.500000
vt 0.210576 0.448196
vt 0.172668 0.436696
vt 0.031250 0.500000
vt 0.031250 1.000000
vt 0.000000 1.000000
vt 0.000000 0.500000
vt 0.250000 0.452079
vt 0.289424 0.448196
vt 0.296822 0.485388
vt 0.250000 0.490000
vt 0.327332 0.436696
vt 0.341844 0.471731
vt 0.362269 0.418022
vt 0.383337 0.449553
vt 0.392891 0.392891
vt 0.419706 0.419706
vt 0.418022 0.362269
vt 0.449553 0.383337
vt 0.436696 0.327332
vt 0.471731 0.341844
vt 0.448196 0.289424
vt 0.485388 0.296822
vt 0.452079 0.250000
vt 0.490000 0.250000
vt 0.448196 0.210576
vt 0.485388 0.203178
vt 0.436696 0.172668
vt 0.471731 0.158156
vt 0.418022 0.137731
vt 0.449553 0.116663
vt 0.392891 0.107109
vt 0.419706 0.080294
vt 0.362269 0.081978
vt 0.383337 0.050447
vt 0.327332 0.063304
vt 0.341844 0.028269
vt 0.289424 0.051804
vt 0.296822 0.014612
vt 0.250000 0.047921
vt 0.250000 0.010000
vt 0.210576 0.051804
vt 0.203178 0.014612
vt 0.172668 0.063304
vt 0.158156 0.028269
vt 0.137731 0.081978
vt 0.116663 0.050447
vt 0.107109 0.107109
vt 0.080294 0.080294
vt 0.081978 0.137731
vt 0.050447 0.116663
vt 0.063304 0.172668
vt 0.028269 0.158156
vt 0.051804 0.210576
vt 0.014612 0.203178
vt 0.047921 0.250000
vt 0.010000 0.250000
vt 0.051804 0.289424
vt 0.014612 0.296822
vt 0.063304 0.327332
vt 0.028269 0.341844
vt 0.081978 0.362269
vt 0.050447 0.383337
vt 0.107109 0.392891
vt 0.080294 0.419706
vt 0.137731 0.418022
vt 0.116663 0.449553
vt 0.158156 0.471731
vt 0.203178 0.485388
s 0
f 1/1/1 66/2/1 65/3/1 3/4/1
f 3/4/2 65/3/2 67/5/2 5/6/2
f 5/6/3 67/5/3 68/7/3 7/8/3
f 7/8/4 68/7/4 69/9/4 9/10/4
f 9/10/5 69/9/5 70/11/5 11/12/5
f 11/12/6 70/11/6 71/13/6 13/14/6
f 13/14/7 71/13/7 72/15/7 15/16/7
f 15/16/8 72/15/8 73/17/8 17/18/8
f 17/18/9 73/17/9 74/19/9 19/20/9
f 19/20/10 74/19/10 75/21/10 21/22/10
f 21/22/11 75/21/11 76/23/11 23/24/11
f 23/24/12 76/23/12 77/25/12 25/26/12
f 25/26/13 77/25/13 78/27/13 27/28/13
f 27/28/14 78/27/14 79/29/14 29/30/14
f 29/30/15 79/29/15 80/31/15 31/32/15
f 31/32/16 80/31/16 81/33/16 33/34/16
f 33/34/17 81/33/17 82/35/17 35/36/17
f 35/36/18 82/35/18 83/37/18 37/38/18
f 37/38/19 83/37/19 84/39/19 39/40/19
f 39/40/20 84/39/20 85/41/20 41/42/20
f 41/42/21 85/41/21 86/43/21 43/44/21
f 43/44/22 86/43/22 87/45/22 45/46/22
f 45/46/23 87/45/23 88/47/23 47/48/23
f 47/48/24 88/47/24 89/49/24 49/50/24
f 49/50/25 89/49/25 90/51/25 51/52/25
f 51/52/26 90/51/26 91/53/26 53/54/26
f 53/54/27 91/53/27 92/55/27 55/56/27
f 55/56/28 92/55/28 93/57/28 57/58/28
f 57/58/29 93/57/29 94/59/29 59/60/29
f 59/60/30 94/59/30 95/61/30 61/62/30
f 64/63/31 62/64/31 61/62/31 63/65/31
f 61/62/32 95/61/32 96/66/32 63/65/32
f 63/65/33 96/66/33 66/67/33 1/68/33
f 2/69/34 64/63/34 63/65/34 1/68/34
f 2/69/35 4/70/35 65/71/35 66/72/35
f 4/70/35 6/73/35 67/74/35 65/71/35
f 6/73/35 8/75/35 68/76/35 67/74/35
f 8/75/35 10/77/35 69/78/35 68/76/35
f 10/77/35 12/79/35 70/80/35 69/78/35
f 12/79/35 14/81/35 71/82/35 70/80/35
f 14/81/35 16/83/35 72/84/35 71/82/35
f 16/83/35 18/85/35 73/86/35 72/84/35
f 18/85/35 20/87/35 74/88/35 73/86/35
f 20/87/35 22/89/35 75/90/35 74/88/35
f 22/89/35 24/91/35 76/92/35 75/90/35
f 24/91/35 26/93/35 77/94/35 76/92/35
f 26/93/35 28/95/35 78/96/35 77/94/35
f 28/95/35 30/97/35 79/98/35 78/96/35
f 30/97/35 32/99/35 80/100/35 79/98/35
f 32/99/35 34/101/35 81/102/35 80/100/35
f 34/101/35 36/103/35 82/104/35 81/102/35
f 36/103/35 38/105/35 83/106/35 82/104/35
f 38/105/35 40/107/35 84/108/35 83/106/35
f 40/107/35 42/109/35 85/110/35 84/108/35
f 42/109/35 44/111/35 86/112/35 85/110/35
f 44/111/35 46/113/35 87/114/35 86/112/35
f 46/113/35 48/115/35 88/116/35 87/114/35
f 48/115/35 50/117/35 89/118/35 88/116/35
f 50/117/35 52/119/35 90/120/35 89/118/35
f 52/119/35 54/121/35 91/122/35 90/120/35
f 54/121/35 56/123/35 92/124/35 91/122/35
f 56/123/35 58/125/35 93/126/35 92/124/35
f 58/125/35 60/127/35 94/128/35 93/126/35
f 60/127/35 62/64/35 95/129/35 94/128/35
f 62/64/35 64/63/35 96/130/35 95/129/35
f 64/63/35 2/69/35 66/72/35 96/130/35
f 62/64/36 60/127/36 59/60/36 61/62/36
f 60/127/37 58/125/37 57/58/37 59/60/37
f 58/125/38 56/123/38 55/56/38 57/58/38
f 56/123/39 54/121/39 53/54/39 55/56/39
f 54/121/40 52/119/40 51/52/40 53/54/40
f 52/119/41 50/117/41 49/50/41 51/52/41
f 50/117/42 48/115/42 47/48/42 49/50/42
f 48/115/43 46/113/43 45/46/43 47/48/43
f 46/113/44 44/111/44 43/44/44 45/46/44
f 44/111/45 42/109/45 41/42/45 43/44/45
f 42/109/46 40/107/46 39/40/46 41/42/46
f 40/107/47 38/105/47 37/38/47 39/40/47
f 38/105/48 36/103/48 35/36/48 37/38/48
f 36/103/49 34/101/49 33/34/49 35/36/49
f 34/101/50 32/99/50 31/32/50 33/34/50
f 32/99/51 30/97/51 29/30/51 31/32/51
f 30/97/52 28/95/52 27/28/52 29/30/52
f 28/95/53 26/93/53 25/26/53 27/28/53
f 26/93/54 24/91/54 23/24/54 25/26/54
f 24/91/55 22/89/55 21/22/55 23/24/55
f 22/89/56 20/87/56 19/20/56 21/22/56
f 20/87/57 18/85/57 17/18/57 19/20/57
f 18/85/58 16/83/58 15/16/58 17/18/58
f 16/83/59 14/81/59 13/14/59 15/16/59
f 14/81/60 12/79/60 11/12/60 13/14/60
f 12/79/61 10/77/61 9/10/61 11/12/61
f 10/77/62 8/75/62 7/8/62 9/10/62
f 8/75/63 6/73/63 5/6/63 7/8/63
f 6/73/64 4/70/64 3/4/64 5/6/64
f 4/70/65 2/69/65 1/1/65 3/4/65
